<svg aria-hidden="true" style="position: absolute; width: 0; height: 0; overflow: hidden;" version="1.1" xmlns="http://www.w3.org/2000/svg" xmlns:xlink="http://www.w3.org/1999/xlink">
<defs>
<symbol id="icon-chevron-right" viewBox="0 0 20 20">
<path d="M9.163 4.516c0.418 0.408 4.502 4.695 4.502 4.695 0.223 0.219 0.335 0.504 0.335 0.789s-0.112 0.57-0.335 0.787c0 0-4.084 4.289-4.502 4.695-0.418 0.408-1.17 0.436-1.615 0-0.446-0.434-0.481-1.041 0-1.574l3.747-3.908-3.747-3.908c-0.481-0.533-0.446-1.141 0-1.576s1.197-0.409 1.615 0z"></path>
</symbol>
<symbol id="icon-dot-single" viewBox="0 0 20 20">
<path d="M7.8 10c0 1.215 0.986 2.2 2.201 2.2s2.199-0.986 2.199-2.2c0-1.215-0.984-2.199-2.199-2.199s-2.201 0.984-2.201 2.199z"></path>
</symbol>
<symbol id="icon-aircraft" viewBox="0 0 20 20">
<path d="M12.496 17.414c-0.394-1.096-1.805-4.775-2.39-6.297-1.103 0.737-2.334 1.435-3.512 1.928-0.366 1.28-1.094 3.709-1.446 4.033-0.604 0.557-0.832 0.485-0.925-0.279s-0.485-3.236-0.485-3.236-2.162-1.219-2.84-1.568-0.667-0.591 0.057-0.974c0.422-0.223 2.927-0.085 4.242 0.005 0.861-0.951 1.931-1.882 2.993-2.679-1.215-1.076-4.15-3.675-5.034-4.424-0.776-0.658 0.079-0.797 0.079-0.797 0.39-0.070 1.222-0.132 1.628-0.009 2.524 0.763 6.442 2.068 7.363 2.376 0.353-0.249 0.737-0.52 1.162-0.821 4.702-3.33 5.887-2.593 6.111-2.27s0.503 1.701-4.199 5.032c-0.425 0.301-0.808 0.573-1.16 0.823-0.029 0.98-0.157 5.151-0.311 7.811-0.025 0.428-0.367 1.198-0.565 1.544-0.001 0-0.423 0.765-0.768-0.198z"></path>
</symbol>
<symbol id="icon-chat" viewBox="0 0 20 20">
<path d="M5.8 12.2v-6.2h-3.8c-1.1 0-2 0.9-2 2v6c0 1.1 0.9 2 2 2h1v3l3-3h5c1.1 0 2-0.9 2-2v-1.82c-0.064 0.014-0.132 0.021-0.2 0.021l-7-0.001zM18 1h-9c-1.1 0-2 0.9-2 2v8h7l3 3v-3h1c1.1 0 2-0.899 2-2v-6c0-1.1-0.9-2-2-2z"></path>
</symbol>
<symbol id="icon-direction" viewBox="0 0 20 20">
<path d="M18.060 1.941c-0.586-0.586-1.144-0.033-3.041 0.879-5.075 2.439-13.919 7.396-13.919 7.396l7.599 1.084 1.085 7.599c0 0 4.958-8.843 7.396-13.916 0.912-1.898 1.465-2.456 0.88-3.042zM16.236 3.896l-5.519 10.247-0.561-4.655 6.080-5.592z"></path>
</symbol>
<symbol id="icon-heart" viewBox="0 0 20 20">
<path d="M17.19 4.155c-1.672-1.534-4.383-1.534-6.055 0l-1.135 1.042-1.136-1.042c-1.672-1.534-4.382-1.534-6.054 0-1.881 1.727-1.881 4.52 0 6.246l7.19 6.599 7.19-6.599c1.88-1.726 1.88-4.52 0-6.246z"></path>
</symbol>
<symbol id="icon-home" viewBox="0 0 20 20">
<path d="M18.672 11h-1.672v6c0 0.445-0.194 1-1 1h-4v-6h-4v6h-4c-0.806 0-1-0.555-1-1v-6h-1.672c-0.598 0-0.47-0.324-0.060-0.748l8.024-8.032c0.195-0.202 0.451-0.302 0.708-0.312 0.257 0.010 0.513 0.109 0.708 0.312l8.023 8.031c0.411 0.425 0.539 0.749-0.059 0.749z"></path>
</symbol>
<symbol id="icon-key" viewBox="0 0 20 20">
<path d="M17.691 4.725c-0.503-2.977-3.22-4.967-6.069-4.441s-5.256 2.816-4.753 5.795c0.107 0.641 0.408 1.644 0.763 2.365l-5.175 7.723c-0.191 0.285-0.299 0.799-0.242 1.141l0.333 1.971c0.058 0.342 0.372 0.572 0.7 0.514l1.516-0.281c0.328-0.059 0.744-0.348 0.924-0.639l2.047-3.311 0.018-0.022 1.386-0.256 2.39-3.879c0.785 0.139 1.912 0.092 2.578-0.031 2.848-0.526 4.087-3.67 3.584-6.649zM15.166 6.252c-0.784 1.17-1.584 0.346-2.703-0.475-1.119-0.818-2.135-1.322-1.352-2.492s2.326-1.455 3.447-0.635c1.12 0.819 1.391 2.432 0.608 3.602z"></path>
</symbol>
<symbol id="icon-location-pin" viewBox="0 0 20 20">
<path d="M10 2.009c-2.762 0-5 2.229-5 4.99 0 4.774 5 11 5 11s5-6.227 5-11c0-2.76-2.238-4.99-5-4.99zM10 9.76c-1.492 0-2.7-1.209-2.7-2.7s1.208-2.7 2.7-2.7c1.49 0 2.699 1.209 2.699 2.7s-1.209 2.7-2.699 2.7z"></path>
</symbol>
<symbol id="icon-magnifying-glass" viewBox="0 0 20 20">
<path d="M17.545 15.467l-3.779-3.779c0.57-0.935 0.898-2.035 0.898-3.21 0-3.417-2.961-6.377-6.378-6.377s-6.186 2.769-6.186 6.186c0 3.416 2.961 6.377 6.377 6.377 1.137 0 2.2-0.309 3.115-0.844l3.799 3.801c0.372 0.371 0.975 0.371 1.346 0l0.943-0.943c0.371-0.371 0.236-0.84-0.135-1.211zM4.004 8.287c0-2.366 1.917-4.283 4.282-4.283s4.474 2.107 4.474 4.474c0 2.365-1.918 4.283-4.283 4.283s-4.473-2.109-4.473-4.474z"></path>
</symbol>
<symbol id="icon-mail" viewBox="0 0 20 20">
<path d="M1.574 5.286c0.488 0.262 7.248 3.894 7.5 4.029s0.578 0.199 0.906 0.199c0.328 0 0.654-0.064 0.906-0.199s7.012-3.767 7.5-4.029c0.489-0.263 0.951-1.286 0.054-1.286h-16.919c-0.897 0-0.435 1.023 0.053 1.286zM18.613 7.489c-0.555 0.289-7.387 3.849-7.727 4.027s-0.578 0.199-0.906 0.199-0.566-0.021-0.906-0.199-7.133-3.739-7.688-4.028c-0.39-0.204-0.386 0.035-0.386 0.219s0 7.293 0 7.293c0 0.42 0.566 1 1 1h16c0.434 0 1-0.58 1-1 0 0 0-7.108 0-7.292s0.004-0.423-0.387-0.219z"></path>
</symbol>
<symbol id="icon-map" viewBox="0 0 20 20">
<path d="M19.447 3.718l-6-3c-0.281-0.141-0.613-0.141-0.895 0l-5.63 2.815-5.606-1.869c-0.306-0.102-0.64-0.051-0.901 0.138s-0.415 0.49-0.415 0.811v13.001c0 0.379 0.214 0.725 0.553 0.894l6 3c0.141 0.070 0.294 0.106 0.447 0.106s0.307-0.035 0.447-0.106l5.63-2.814 5.606 1.869c0.305 0.1 0.64 0.049 0.901-0.139s0.415-0.49 0.415-0.81v-13.002c0.001-0.379-0.213-0.725-0.552-0.894zM8 5.231l4-2v11.763l-4 2v-11.763zM2 4l4 1.333v11.661l-4-2v-10.994zM18 16.227l-4-1.334v-11.662l4 2v10.996z"></path>
</symbol>
<symbol id="icon-retweet" viewBox="0 0 20 20">
<path d="M5 13v-5h2l-3.5-4-3.5 4h2v6c0 1.104 0.895 2 2 2h9.482l-2.638-3h-5.844zM9.156 7l-2.638-3h9.482c1.104 0 2 0.897 2 2v6h2l-3.5 4-3.5-4h2v-5h-5.844z"></path>
</symbol>
<symbol id="icon-signal" viewBox="0 0 20 20">
<path d="M10 14c-1.094 0-1.981 0.894-1.981 2 0 1.104 0.887 2 1.981 2s1.98-0.896 1.98-2c0-1.105-0.886-2-1.98-2zM5.8 11.758l1.4 1.414c1.546-1.562 4.054-1.562 5.601 0l1.399-1.414c-2.319-2.343-6.081-2.343-8.4 0zM3 8.928l1.4 1.414c3.092-3.123 8.106-3.123 11.199 0l1.401-1.414c-3.865-3.904-10.135-3.904-14 0zM0.199 6.1l1.4 1.414c4.639-4.686 12.161-4.686 16.801 0l1.4-1.414c-5.412-5.467-14.188-5.467-19.601 0z"></path>
</symbol>
<symbol id="icon-star" viewBox="0 0 20 20">
<path d="M10 1.3l2.388 6.722h6.412l-5.232 3.948 1.871 6.928-5.439-4.154-5.438 4.154 1.87-6.928-5.233-3.948h6.412l2.389-6.722z"></path>
</symbol>
</defs>
</svg>
